<svg xmlns="http://www.w3.org/2000/svg" viewBox="0 0 292.43 106.78"><defs><style>.a{fill:#50bad3;}.b{fill:#b7b7b7;}.c{fill:#40b983;}.d{opacity:0.2;}.e{fill:#53c2df;}.f{fill:none;stroke:#41b880;stroke-linecap:round;stroke-linejoin:round;stroke-width:2px;}</style></defs><title>Artboard 1</title><path class="a" d="M64.85,45.34v3.9a24.67,24.67,0,0,1,4.26-3.5,5.42,5.42,0,0,1,2.6-.78,3.76,3.76,0,0,1,2.42.92c.74.62,1.12,1.09,1.12,1.41a.83.83,0,0,1-.22.58.75.75,0,0,1-.55.23.65.65,0,0,1-.29-.06,2.69,2.69,0,0,1-.45-.42,4.54,4.54,0,0,0-1.06-.88,1.85,1.85,0,0,0-.88-.24,4.69,4.69,0,0,0-2.3.81,35.73,35.73,0,0,0-4.65,3.95v8.47H71.3a1.11,1.11,0,0,1,.76.21.73.73,0,0,1,.22.56.74.74,0,0,1-.22.55,1.06,1.06,0,0,1-.76.22H59.88a1.07,1.07,0,0,1-.74-.21.71.71,0,0,1-.23-.54.69.69,0,0,1,.22-.53,1.05,1.05,0,0,1,.75-.21H63.4V46.91H60.71a1,1,0,0,1-.74-.23.75.75,0,0,1-.23-.57.78.78,0,0,1,.22-.55,1.07,1.07,0,0,1,.75-.22Z"/><path class="a" d="M95.75,53.67H80.93a7.63,7.63,0,0,0,2.36,4.83,7,7,0,0,0,4.91,1.83,11.17,11.17,0,0,0,3.41-.57,8.49,8.49,0,0,0,2.91-1.51,1,1,0,0,1,.57-.27.65.65,0,0,1,.49.23.76.76,0,0,1,.21.54.88.88,0,0,1-.28.61,7.78,7.78,0,0,1-3,1.72,12.37,12.37,0,0,1-4.36.8A8.32,8.32,0,0,1,82,59.28,8.77,8.77,0,0,1,79.45,53,8,8,0,0,1,81.8,47.2a7.78,7.78,0,0,1,5.81-2.41,7.69,7.69,0,0,1,5.87,2.47A8.87,8.87,0,0,1,95.75,53.67Zm-1.47-1.56A6.87,6.87,0,0,0,92,48a6.83,6.83,0,0,0-8.77,0,6.86,6.86,0,0,0-2.29,4.17Z"/><path class="a" d="M113.35,61.27V59.05a10,10,0,0,1-6.77,2.83,5.66,5.66,0,0,1-4.09-1.41A4.6,4.6,0,0,1,101,57,5,5,0,0,1,103,53.1a8.46,8.46,0,0,1,5.66-1.67,19.2,19.2,0,0,1,2.18.14,25.16,25.16,0,0,1,2.55.43V49.5a2.82,2.82,0,0,0-1.11-2.21,5.08,5.08,0,0,0-3.32-.94,16,16,0,0,0-4.77,1,3.4,3.4,0,0,1-.71.19.63.63,0,0,1-.47-.22.79.79,0,0,1-.2-.56.69.69,0,0,1,.17-.49,5.63,5.63,0,0,1,2-.76,16.54,16.54,0,0,1,4.09-.77,6,6,0,0,1,4.29,1.44,4.38,4.38,0,0,1,1.54,3.27V59.73h1.94a1.14,1.14,0,0,1,.77.21.73.73,0,0,1,.22.56.74.74,0,0,1-.22.55,1.09,1.09,0,0,1-.77.22Zm0-7.69a13.1,13.1,0,0,0-2.16-.46,18.71,18.71,0,0,0-2.41-.14,7.63,7.63,0,0,0-5,1.45A3.23,3.23,0,0,0,102.47,57a3.13,3.13,0,0,0,1,2.36,4.31,4.31,0,0,0,3,.95,7.73,7.73,0,0,0,3.51-.8A12.6,12.6,0,0,0,113.35,57Z"/><path class="a" d="M136.53,46.91v-.52a1.23,1.23,0,0,1,.2-.81.67.67,0,0,1,.52-.24.68.68,0,0,1,.54.24,1.23,1.23,0,0,1,.21.81v3.5a1.32,1.32,0,0,1-.22.8.69.69,0,0,1-1,0,1.12,1.12,0,0,1-.23-.71,3.64,3.64,0,0,0-1.62-2.48,6.51,6.51,0,0,0-4.08-1.18,5.85,5.85,0,0,0-4.92,2.16,7.76,7.76,0,0,0-1.68,4.92,6.92,6.92,0,0,0,1.85,5,6.34,6.34,0,0,0,4.8,1.95,9.76,9.76,0,0,0,3.45-.66,8.49,8.49,0,0,0,3.18-2.13,1,1,0,0,1,.64-.37.67.67,0,0,1,.5.21.75.75,0,0,1,.2.52c0,.53-.59,1.2-1.75,2a10.76,10.76,0,0,1-6.29,2A7.66,7.66,0,0,1,125,59.5a8.48,8.48,0,0,1-2.26-6,8.69,8.69,0,0,1,2.32-6.2,7.64,7.64,0,0,1,5.82-2.46A8,8,0,0,1,136.53,46.91Z"/><path class="a" d="M148.75,45.34h7.9a1.08,1.08,0,0,1,.75.22.77.77,0,0,1,.22.57.72.72,0,0,1-.22.55,1,1,0,0,1-.75.23h-7.9V57.19a2.87,2.87,0,0,0,1,2.24,4.32,4.32,0,0,0,3,.9,11.9,11.9,0,0,0,3.19-.47,10.33,10.33,0,0,0,2.66-1,1.09,1.09,0,0,1,.57-.24.62.62,0,0,1,.49.23.76.76,0,0,1,.21.54.73.73,0,0,1-.23.51,7,7,0,0,1-2.69,1.32,13.11,13.11,0,0,1-4.1.71,6.1,6.1,0,0,1-4.05-1.27,4.24,4.24,0,0,1-1.51-3.42V46.91H144.6a1,1,0,0,1-.75-.23.82.82,0,0,1,0-1.12,1.08,1.08,0,0,1,.75-.22h2.68V40.78a1.19,1.19,0,0,1,.21-.79.66.66,0,0,1,.52-.24.68.68,0,0,1,.54.24,1.25,1.25,0,0,1,.2.79Z"/><path class="b" d="M173.8,45.34V59.73h5.72a1.11,1.11,0,0,1,.76.21.73.73,0,0,1,.22.56.74.74,0,0,1-.22.55,1.06,1.06,0,0,1-.76.22H166.63a1,1,0,0,1-.75-.22.74.74,0,0,1-.22-.55.73.73,0,0,1,.22-.56,1.08,1.08,0,0,1,.75-.21h5.71V46.91H168.1a1.05,1.05,0,0,1-.75-.23.71.71,0,0,1-.24-.55.78.78,0,0,1,.23-.57,1.09,1.09,0,0,1,.76-.22Zm-.05-7.93v4H171.6v-4Z"/><path class="c" d="M195.59,61.27h-2.46l-6-14.36h-1.49a1,1,0,0,1-.74-.23.8.8,0,0,1,0-1.12,1.07,1.07,0,0,1,.74-.22h5.46a1.08,1.08,0,0,1,.75.22.77.77,0,0,1,.22.57.72.72,0,0,1-.22.55,1,1,0,0,1-.75.23h-2.41l5.34,12.82h.64l5.23-12.82h-2.43a1,1,0,0,1-.74-.23.8.8,0,0,1,0-1.12,1.07,1.07,0,0,1,.74-.22H203a1,1,0,0,1,.75.22.77.77,0,0,1,.22.57.72.72,0,0,1-.22.55,1,1,0,0,1-.75.23H201.5Z"/><path class="c" d="M220.58,61.27V59a9.15,9.15,0,0,1-6.44,2.87,4.14,4.14,0,0,1-3.24-1.23,5.51,5.51,0,0,1-1.44-3.78v-10h-2a1,1,0,0,1-.75-.23.82.82,0,0,1,0-1.12,1.08,1.08,0,0,1,.75-.22h3.41V56.87a3.53,3.53,0,0,0,.9,2.49,2.93,2.93,0,0,0,2.25,1q3.56,0,6.51-3.46v-10H217.9a1,1,0,0,1-.75-.23.82.82,0,0,1,0-1.12,1.08,1.08,0,0,1,.75-.22H222V59.73h1.23a1.07,1.07,0,0,1,.74.21.74.74,0,0,1,.23.56.75.75,0,0,1-.23.55,1,1,0,0,1-.74.22Z"/><path class="c" d="M244.76,53.67H229.94a7.63,7.63,0,0,0,2.36,4.83,7,7,0,0,0,4.91,1.83,11.17,11.17,0,0,0,3.41-.57,8.49,8.49,0,0,0,2.91-1.51,1,1,0,0,1,.57-.27.65.65,0,0,1,.49.23.76.76,0,0,1,.21.54.88.88,0,0,1-.28.61,7.78,7.78,0,0,1-3,1.72,12.37,12.37,0,0,1-4.36.8,8.32,8.32,0,0,1-6.24-2.6,8.77,8.77,0,0,1-2.51-6.3,8,8,0,0,1,2.35-5.78,7.78,7.78,0,0,1,5.81-2.41,7.69,7.69,0,0,1,5.87,2.47A8.87,8.87,0,0,1,244.76,53.67Zm-1.47-1.56A6.87,6.87,0,0,0,241,48a6.83,6.83,0,0,0-8.77,0A6.86,6.86,0,0,0,230,52.11Z"/><g class="d"><path class="e" d="M43.13,67c2.35.48,4.57.89,6.76,1.39a4.55,4.55,0,0,1,1.31.84c-.48.15-1,.49-1.44.41-7.09-1.15-14-2.87-20.19-6.71a22.19,22.19,0,0,1-4.79-4.07,8,8,0,0,1-.14-10.69c3.2-4,7.72-5.94,12.3-7.75.83.88.41,1.2-.37,1.58a78.06,78.06,0,0,0-7.32,3.81,15.14,15.14,0,0,0-3.76,3.52,6.1,6.1,0,0,0,0,8.2,25.19,25.19,0,0,0,5.37,4.6,35.06,35.06,0,0,0,10.85,4.39c.8-2.32,1.53-4.51,2.33-6.68s2.32-4.32,2.33-6.48S44.82,49.12,44,47c-2.53-6.83-4.48-13.78-4.24-21.15a19.46,19.46,0,0,1,.74-4.62c1.69-5.71,6-8,11.7-6.22,5.06,1.55,9.06,4.76,12.9,8.21l1.31,1.2c.8-.69,1.56-1.35,2.31-2a34.5,34.5,0,0,1,10.7-6.93,17.21,17.21,0,0,1,3.61-.91c5.08-.71,8.88,2.55,9.81,8.31,1,6-.06,11.87-1.8,17.59-1.19,3.92-2.84,7.7-4.16,11.58a4.48,4.48,0,0,0,0,2.71c1.2,3.47,2.6,6.87,3.82,10.33.39,1.1.79,1.43,2,1,4.61-1.48,9.09-3.21,12.83-6.41,4.6-3.92,4.7-8.88-.09-12.62-2.52-2-5.55-3.28-8.37-4.87-.42-.24-.94-.31-1.33-.57s-.36-.54-.53-.82c.3-.13.68-.45.9-.37,5.15,2,10.25,4.07,13.18,9.14,1.87,3.22,1.19,6.37-1.05,9.21a21.64,21.64,0,0,1-8.51,6.06A57.08,57.08,0,0,1,93,67.35c-1.24.38-1.45.87-1.16,2.07,1.14,4.75,1.84,9.56,1,14.45-.49,2.84-1.48,5.45-4,7.14-2.73,1.81-5.66,1.53-8.59.62a28.85,28.85,0,0,1-9.34-5.44c-.33-.26-.39-.86-.57-1.31l.47-.27c1.68,1.15,3.28,2.44,5,3.42a31.11,31.11,0,0,0,5.9,2.62c4.41,1.36,8-.67,9.33-5.1s.9-8.77.08-13.15c-1.88-10-6-19.14-11.08-27.88-.54-.94-1.1-1.86-1.67-2.8.64-1.12,1.16-.68,1.61.11C81.5,44.41,83,47,84.4,49.6c.32.55.61,1.12,1,1.88a5.06,5.06,0,0,0,.62-.87c1.14-3,2.24-6.08,3.4-9.1.46-1.18.21-1.74-1.09-2a90.7,90.7,0,0,0-24.51-2.22c-6.08.34-12.13,1.31-18.2,2A23.31,23.31,0,0,0,43,40l4.29,11.74c.55-.84.83-1.2,1-1.59,1.26-2.27,2.47-4.57,3.78-6.8.28-.48.94-.72,1.42-1.07a5,5,0,0,1-.29,1.64A102,102,0,0,0,43.66,65C43.48,65.54,43.35,66.11,43.13,67ZM74.31,36a10.92,10.92,0,0,0-.72-1.23c-2.41-2.84-4.7-5.79-7.28-8.47-4-4.15-8.34-7.87-13.91-9.81s-9.68.27-10.85,6.1c-1,5.08-.27,10.09,1,15.06.25,1.06.91.79,1.62.66C47.74,37.67,51.35,37,55,36.52A3.51,3.51,0,0,0,57.61,35c1.64-2.26,3.43-4.4,5.16-6.61,1,.93,1,.92.28,1.85-1.49,1.86-3,3.73-4.61,5.79ZM92.2,27.31a57.13,57.13,0,0,0-1.29-6.53c-1.18-3.72-4-5.4-7.9-4.87a14.7,14.7,0,0,0-3.13.81c-4.48,1.73-8.11,4.71-11.59,7.9-.68.62-.6,1.06,0,1.74,2.51,3,4.93,6,7.45,9a3.42,3.42,0,0,0,1.85,1.07c3.78.69,7.58,1.22,11.35,1.92,1.08.2,1.52-.1,1.68-1.08C91.13,34,91.66,30.65,92.2,27.31Z"/><path class="e" d="M65.22,81.48c-3.09-4-6.23-7.76-9.09-11.75-2.11-2.93-3.89-6.11-5.75-9.21-.22-.37,0-1,0-1.49.38.28.89.48,1.13.86q2.56,4,5,8.14a2.46,2.46,0,0,0,2.39,1.31c5.13,0,10.27,0,15.4-.09a2.91,2.91,0,0,0,2-1.17c1.78-2.65,3.37-5.42,5.08-8.11.25-.39.81-.59,1.23-.87,0,.49.11,1.09-.11,1.48-1.54,2.71-3.16,5.38-5,8.51,2.53-.38,4.66-.74,6.81-1a3,3,0,0,1,2,.55C77.29,71,68.14,71,59,70.74l-.34.43,7.7,9.29c2.08-2.17,4-4.15,5.9-6.1a7.45,7.45,0,0,1,.89.63,85.38,85.38,0,0,1-6.23,6.83A109.64,109.64,0,0,1,57,89.65a14.49,14.49,0,0,1-8.56,2.64,7.4,7.4,0,0,1-7-4.41c-2.37-4.91-1.87-10-1-15.25,1.51.13,1,1.09,1,1.81,0,3.23-.34,6.51.13,9.67.85,5.85,5.14,8.2,10.71,6.28A35.07,35.07,0,0,0,65.22,81.48Z"/></g><g class="d"><polyline class="f" points="269.77 17.82 227.27 91.13 184.77 17.82"/><polyline class="f" points="252.43 17.82 227.27 61.52 201.83 17.82"/><polyline class="f" points="237.09 17.82 227.27 35.06 217.93 17.82"/><line class="f" x1="184.77" y1="17.82" x2="217.93" y2="17.82"/><line class="f" x1="237.09" y1="17.82" x2="269.77" y2="17.82"/></g></svg>